<svg width="26" height="22" viewBox="0 0 26 22" fill="none" xmlns="http://www.w3.org/2000/svg">
<path d="M19.6667 6.99999V4.33332C19.6667 3.62608 19.3857 2.9478 18.8856 2.4477C18.3855 1.94761 17.7072 1.66666 17 1.66666H3.66667C2.95942 1.66666 2.28115 1.94761 1.78105 2.4477C1.28095 2.9478 1 3.62608 1 4.33332V12.3333C1 13.0406 1.28095 13.7188 1.78105 14.2189C2.28115 14.719 2.95942 15 3.66667 15H6.33333M6.33333 9.66666C6.33333 8.95941 6.61428 8.28114 7.11438 7.78104C7.61448 7.28094 8.29276 6.99999 9 6.99999H22.3333C23.0406 6.99999 23.7189 7.28094 24.219 7.78104C24.719 8.28114 25 8.95941 25 9.66666V17.6667C25 18.3739 24.719 19.0522 24.219 19.5523C23.7189 20.0524 23.0406 20.3333 22.3333 20.3333H9C8.29276 20.3333 7.61448 20.0524 7.11438 19.5523C6.61428 19.0522 6.33333 18.3739 6.33333 17.6667V9.66666ZM13 13.6667C13 14.3739 13.281 15.0522 13.781 15.5523C14.2811 16.0524 14.9594 16.3333 15.6667 16.3333C16.3739 16.3333 17.0522 16.0524 17.5523 15.5523C18.0524 15.0522 18.3333 14.3739 18.3333 13.6667C18.3333 12.9594 18.0524 12.2811 17.5523 11.781C17.0522 11.2809 16.3739 11 15.6667 11C14.9594 11 14.2811 11.2809 13.781 11.781C13.281 12.2811 13 12.9594 13 13.6667Z" stroke="black" stroke-width="1.5" stroke-linecap="round" stroke-linejoin="round"/>
</svg>
