<svg width="25" height="24" viewBox="0 0 25 24" fill="none" xmlns="http://www.w3.org/2000/svg">
<path d="M12.3266 10.87C12.2266 10.86 12.1066 10.86 11.9966 10.87C9.61656 10.79 7.72656 8.84 7.72656 6.44C7.72656 3.99 9.70656 2 12.1666 2C14.6166 2 16.6066 3.99 16.6066 6.44C16.5966 8.84 14.7066 10.79 12.3266 10.87Z" stroke="#A2A2A2" stroke-width="1.5" stroke-linecap="round" stroke-linejoin="round"/>
<path d="M7.32647 14.56C4.90647 16.18 4.90647 18.82 7.32647 20.43C10.0765 22.27 14.5865 22.27 17.3365 20.43C19.7565 18.81 19.7565 16.17 17.3365 14.56C14.5965 12.73 10.0865 12.73 7.32647 14.56Z" stroke="#A2A2A2" stroke-width="1.5" stroke-linecap="round" stroke-linejoin="round"/>
</svg>
